<?xml version="1.0" encoding="UTF-8"?>
<svg version="1.1" xmlns="http://www.w3.org/2000/svg" width="1920" height="1920">
<path d="M0 0 C633.6 0 1267.2 0 1920 0 C1920 633.6 1920 1267.2 1920 1920 C1286.4 1920 652.8 1920 0 1920 C0 1286.4 0 652.8 0 0 Z " fill="#F4801F" transform="translate(0,0)"/>
<path d="M0 0 C169.95 0 339.9 0 515 0 C515.08075728 221.22112245 515.08075728 221.22112245 515.09632993 306.02184463 C515.10053597 328.86801406 515.10485465 351.71418347 515.10945851 374.56035283 C515.10986231 376.56984984 515.11026266 378.57934685 515.11066218 380.58884387 C515.11678763 411.3342345 515.12458098 442.07962354 515.1373291 472.82501221 C515.1376029 473.48542466 515.1378767 474.14583711 515.13815879 474.82626206 C515.14285895 486.13673181 515.14772258 497.44720148 515.15259444 508.75767116 C515.17148009 552.68239013 515.18377563 596.60710616 515.18782998 640.53182912 C515.18840625 646.74200647 515.18905753 652.95218381 515.18975449 659.16236115 C515.18988933 660.38456148 515.19002418 661.60676181 515.19016311 662.86599851 C515.19252259 682.50598735 515.20178802 702.14596709 515.21366407 721.78595222 C515.22546757 741.5513789 515.22992871 761.31679659 515.22700275 781.08222666 C515.22548658 792.81182028 515.22949234 804.54138093 515.24159509 816.27096857 C515.24914237 824.12532277 515.24929422 831.9796556 515.24366363 839.83401133 C515.24066903 844.29711411 515.24066954 848.76015493 515.24976636 853.22325084 C515.28628087 872.25092736 514.91743695 891.06874542 513.25900303 910.03744808 C512.91211327 914.00527401 512.59718119 917.97548523 512.28048147 921.94581632 C511.38223845 932.72846633 509.89967523 943.35161384 508 954 C507.82597656 954.99547852 507.65195313 955.99095703 507.47265625 957.01660156 C504.8352182 971.96359962 501.6368913 986.54276271 497 1001 C496.51273438 1002.52343018 496.51273438 1002.52343018 496.015625 1004.07763672 C476.32668777 1064.8433539 439.91050722 1113.60903197 382.8347168 1143.70068359 C345.1257618 1162.78232347 302.78916066 1172.584369 261 1177 C259.90142748 1177.11938148 259.90142748 1177.11938148 258.78066158 1177.2411747 C244.24803936 1178.79485392 229.89685607 1179.28385943 215.2890625 1179.23046875 C213.06220527 1179.22926972 210.83534753 1179.2288253 208.60848999 1179.2290802 C203.96454647 1179.22752936 199.32068154 1179.21936026 194.67675781 1179.20581055 C188.85506211 1179.18899967 183.03345271 1179.18508829 177.21173573 1179.18561649 C138.79053507 1179.18484031 100.44292121 1178.46139866 62.0625 1176.6875 C60.67070909 1176.62436406 59.27891417 1176.56131632 57.88711548 1176.49835205 C35.15107849 1175.46425073 12.45669702 1174.05941603 -10.23999023 1172.3581543 C-12.42691511 1172.19442574 -14.6138453 1172.03076814 -16.80078125 1171.8671875 C-17.83857224 1171.78920425 -18.87636322 1171.71122101 -19.94560242 1171.63087463 C-27.67152778 1171.06358466 -35.39799457 1170.64559876 -43.13899231 1170.34786987 C-46.83491528 1170.19722013 -50.47697582 1169.97879617 -54.14599609 1169.49902344 C-57.79480609 1169.02656888 -61.38527923 1168.75659066 -65.05859375 1168.5703125 C-66.41228851 1168.49827255 -67.76596621 1168.42591141 -69.11962891 1168.35327148 C-69.82323547 1168.31628143 -70.52684204 1168.27929138 -71.25177002 1168.24118042 C-84.23363988 1167.55114135 -97.18004445 1166.63562022 -110.125 1165.4375 C-111.16840042 1165.34145477 -111.16840042 1165.34145477 -112.23287964 1165.24346924 C-119.17515494 1164.60045395 -126.0800081 1163.86499899 -133 1163 C-133 1089.08 -133 1015.16 -133 939 C-124.3966356 939 -115.94756564 939.06169415 -107.3828125 939.55078125 C-105.10744629 939.67249507 -102.83205419 939.79372545 -100.55664062 939.91455078 C-99.35370361 939.97934631 -98.1507666 940.04414185 -96.91137695 940.11090088 C-32.88401259 943.51992765 31.22426473 945.44727175 95.33874512 945.96746826 C98.90595208 945.99916435 102.472956 946.0391959 106.04003906 946.08251953 C111.34440295 946.14671181 116.64863331 946.19543674 121.95327759 946.22915649 C123.80909314 946.24268524 125.6648831 946.26078698 127.52059937 946.28427124 C152.11063179 946.57761301 174.8128772 941.60080511 193.25 924.3125 C210.64197472 906.00075739 215.1638098 882.11509103 215.1386652 857.69820881 C215.14292853 856.06592932 215.14292853 856.06592932 215.14727798 854.40067449 C215.15558019 850.76518086 215.15688967 847.12971928 215.15821838 843.49421692 C215.16278678 840.85722372 215.16774583 838.22023388 215.17318195 835.5832426 C215.18420537 829.85569716 215.19159754 824.12815609 215.19658089 818.40060234 C215.20400749 809.88400754 215.21709533 801.36742795 215.23132664 792.85084214 C215.25510918 778.52295449 215.2743251 764.19506414 215.29092598 749.86716652 C215.30737462 735.68357789 215.32586057 721.49999433 215.34705925 707.31641197 C215.34837686 706.43406521 215.34969446 705.55171845 215.351052 704.6426339 C215.35775421 700.16152379 215.36449274 695.68041374 215.37124526 691.19930371 C215.41899082 659.47100881 215.46218086 627.74270919 215.50268555 596.0144043 C215.54204236 565.19343726 215.58346656 534.37247413 215.62768555 503.55151367 C215.62904808 502.60124684 215.63041061 501.65098002 215.63181442 500.67191722 C215.64549996 491.12882723 215.65922748 481.58573731 215.67298577 472.04264742 C215.70101127 452.60278804 215.72875657 433.16292826 215.7563324 413.72306824 C215.7576006 412.82928198 215.7588688 411.93549573 215.76017542 411.01462504 C215.79902738 383.62261068 215.83669184 356.23059487 215.8731842 328.83857727 C215.8742206 328.06098491 215.87525699 327.28339256 215.87632478 326.48223679 C215.91828273 294.98815883 215.95898333 263.49407921 216 232 C144.72 232 73.44 232 0 232 C0 155.44 0 78.88 0 0 Z " fill="#FEFEFE" transform="translate(709,383)"/>
</svg>
